<svg width="16" height="20" viewBox="0 0 16 20" fill="none" xmlns="http://www.w3.org/2000/svg">
<path d="M8.00008 8.33268C9.84103 8.33268 11.3334 6.8403 11.3334 4.99935C11.3334 3.1584 9.84103 1.66602 8.00008 1.66602C6.15913 1.66602 4.66675 3.1584 4.66675 4.99935C4.66675 6.8403 6.15913 8.33268 8.00008 8.33268Z" stroke="#064EA4" stroke-width="1.5"/>
<path d="M14.6652 14.9987C14.6663 14.862 14.6668 14.7231 14.6668 14.582C14.6668 12.5112 11.6818 10.832 8.00016 10.832C4.3185 10.832 1.3335 12.5112 1.3335 14.582C1.3335 16.6529 1.3335 18.332 8.00016 18.332C9.85933 18.332 11.2002 18.2012 12.1668 17.9679" stroke="#064EA4" stroke-width="1.5" stroke-linecap="round"/>
</svg>
