<svg width="20" height="20" viewBox="0 0 20 20" fill="none" xmlns="http://www.w3.org/2000/svg">
<g clip-path="url(#clip0_763_653)">
<path fill-rule="evenodd" clip-rule="evenodd" d="M0.716288 5.125C0.501823 5.22587 0.320491 5.38569 0.19348 5.58579C0.066469 5.78589 -0.000976563 6.018 -0.000976562 6.255C-0.000976563 6.492 0.066469 6.72411 0.19348 6.92421C0.320491 7.12431 0.501823 7.28413 0.716288 7.385L2.50379 8.22875V13.1287C2.50379 14.0562 2.80504 15.0912 3.68379 15.7287C4.79129 16.5287 6.80879 17.5037 10.0088 17.5037C13.2088 17.5037 15.2213 16.5225 16.3338 15.7287C17.2125 15.0937 17.5138 14.0662 17.5138 13.1287V8.22875L18.7638 7.6375V13.125C18.7638 13.2908 18.8296 13.4497 18.9468 13.5669C19.0641 13.6842 19.223 13.75 19.3888 13.75C19.5545 13.75 19.7135 13.6842 19.8307 13.5669C19.9479 13.4497 20.0138 13.2908 20.0138 13.125V6.25C20.0138 6.01327 19.9467 5.7814 19.8201 5.58135C19.6935 5.38131 19.5127 5.22132 19.2988 5.12L12.1488 1.745C11.4805 1.42898 10.7505 1.26508 10.0113 1.26508C9.27207 1.26508 8.54205 1.42898 7.87379 1.745L0.723788 5.12L0.716288 5.125ZM3.75379 13.125V8.8125L7.86629 10.7625C8.53455 11.0785 9.26457 11.2424 10.0038 11.2424C10.743 11.2424 11.473 11.0785 12.1413 10.7625L16.2538 8.8125V13.125C16.2538 13.82 16.0288 14.3875 15.5913 14.7C14.6863 15.3537 12.9288 16.25 10.0038 16.25C7.07879 16.25 5.31629 15.36 4.41629 14.7C3.98004 14.385 3.75379 13.8137 3.75379 13.125ZM8.40379 2.875C8.90391 2.6381 9.4504 2.51521 10.0038 2.51521C10.5572 2.51521 11.1037 2.6381 11.6038 2.875L18.7538 6.25L11.6038 9.625C11.1037 9.8619 10.5572 9.98479 10.0038 9.98479C9.4504 9.98479 8.90391 9.8619 8.40379 9.625L1.25379 6.25L8.40379 2.875Z" fill="#6C706F"/>
</g>
<defs>
<clipPath id="clip0_763_653">
<rect width="20" height="20" fill="white"/>
</clipPath>
</defs>
</svg>
